<svg xmlns="http://www.w3.org/2000/svg" viewBox="0 0 1920 1080"><defs><style>.cls-1{fill:#b3654d;}.cls-2{opacity:0.15;}.cls-3{fill:#fff;}</style></defs><title>Artboard 1</title><g id="Layer_1" data-name="Layer 1"><rect class="cls-1" width="1920" height="1080"/></g><g id="Layer_2" data-name="Layer 2"><g class="cls-2"><path class="cls-3" d="M389.12-3.28a51.07,51.07,0,0,1,4.53,18.5,64.48,64.48,0,0,1-2,19.11L391,36.66a22.7,22.7,0,0,1-.68,2.31l-1.58,4.56c-1.23,2.95-2.38,6-3.87,8.8l-1.07,2.15-.54,1.07-.59,1-2.38,4.17c-.77,1.41-1.7,2.71-2.55,4.06s-1.69,2.72-2.63,4l-2.82,3.87-1.41,1.94-1.49,1.86c-2,2.46-4,5-6.15,7.32a134,134,0,0,1-13.8,13.26,96.64,96.64,0,0,1-15.86,10.65,68.24,68.24,0,0,1-17.86,6.68,55.91,55.91,0,0,1-9.49,1.24,58,58,0,0,1-9.58-.45,55.85,55.85,0,0,1-9.37-2.17,59.79,59.79,0,0,1-8.87-3.8c-11.43-6-20.69-15.77-27.1-27a72.45,72.45,0,0,1-4.26-8.72A68.82,68.82,0,0,1,244,64.33a59.48,59.48,0,0,1-2.06-19.41A42.66,42.66,0,0,1,247.52,26a37.44,37.44,0,0,1,14.25-13.71h0a1.93,1.93,0,0,1,.79-.23c5.58-.34,11.22-1,16.81-1.71s11.17-1.66,16.69-2.83A130.58,130.58,0,0,0,312.4,3.09a66.59,66.59,0,0,0,15.26-7.21.2.2,0,0,1,.28,0,.2.2,0,0,1,0,.27A62.83,62.83,0,0,1,313,4.65,124.1,124.1,0,0,1,296.68,10c-2.77.75-5.56,1.39-8.35,2s-5.62,1.12-8.44,1.59c-5.65,1-11.29,1.74-17.05,2.25l.81-.25a34.44,34.44,0,0,0-12.52,12.48,40.61,40.61,0,0,0-5,17.11c-.82,12.1,2.52,24.45,8.4,35.24a69.62,69.62,0,0,0,25,26.7,55,55,0,0,0,8.37,4,54.24,54.24,0,0,0,9,2.46,49.9,49.9,0,0,0,9.3.68c.78,0,1.56-.08,2.34-.12a22.74,22.74,0,0,0,2.32-.22l2.32-.31,2.3-.45,1.15-.23,1.13-.3,2.26-.61,2.22-.76c.74-.25,1.48-.49,2.2-.81,1.45-.59,2.9-1.16,4.3-1.88.69-.35,1.41-.67,2.09-1.05l2.05-1.14a85.73,85.73,0,0,0,15-11.14,132.46,132.46,0,0,0,12.86-13.62c2-2.37,3.91-4.88,5.83-7.35l1.45-1.84,1.37-1.9,2.74-3.81c.91-1.27,1.73-2.59,2.6-3.89s1.77-2.57,2.53-3.93l2.37-4,.59-1,.54-1,1.07-2.07c1.51-2.73,2.7-5.6,4-8.43L387.51,38c.29-.72.52-1.46.74-2.2l.69-2.23a66.9,66.9,0,0,0,2.81-18.32,53.74,53.74,0,0,0-3-18.4.19.19,0,0,1,.12-.25A.2.2,0,0,1,389.12-3.28Z"/><path class="cls-3" d="M473-4a196.86,196.86,0,0,1,4.61,22.48,162.92,162.92,0,0,1,1.75,23,137.91,137.91,0,0,1-1.75,23c-.28,1.91-.71,3.8-1.08,5.7s-.86,3.77-1.4,5.63a100.39,100.39,0,0,1-3.67,11,93.55,93.55,0,0,1-11.23,20.38,90.18,90.18,0,0,1-7.51,8.94c-2.76,2.77-5.53,5.41-8.45,7.92s-5.88,5-8.88,7.37-6.12,4.64-9.27,6.85q-9.42,6.61-19.34,12.44a380.32,380.32,0,0,1-41,20.56c-7,3-14.12,5.87-21.3,8.51s-14.45,5-21.74,7.31A315.76,315.76,0,0,1,278,197.56a159.32,159.32,0,0,1-23,1.84,66.38,66.38,0,0,1-11.71-1,29.81,29.81,0,0,1-5.87-1.7,11.57,11.57,0,0,1-5.34-4.12l.56.57a273.89,273.89,0,0,1-22.85-16.63,188.41,188.41,0,0,1-20.65-19.41c-12.78-13.93-23.31-30.28-29.29-48.4a115.81,115.81,0,0,1-3.91-56.23C159,33.85,166.31,16.22,175.44-.1a.2.2,0,0,1,.27-.07.21.21,0,0,1,.09.26h0l-3,6.35-1.5,3.17c-.49,1.06-.9,2.15-1.35,3.23l-2.66,6.47c-.8,2.19-1.53,4.4-2.3,6.6a142.82,142.82,0,0,0-6.55,27,126,126,0,0,0-.81,27.64,109.23,109.23,0,0,0,5.79,26.94,123.57,123.57,0,0,0,12,24.8,156.54,156.54,0,0,0,16.77,22c12.43,13.7,27,25.45,42.41,35.81a1.85,1.85,0,0,1,.54.54l0,0a8.21,8.21,0,0,0,3.62,2.72,26.5,26.5,0,0,0,5.1,1.52A63.23,63.23,0,0,0,255,196a160.43,160.43,0,0,0,22.6-1.35,301.28,301.28,0,0,0,44.65-9.17c29.26-8.37,57.65-20.39,83.35-36.72a267.46,267.46,0,0,0,36.34-27.34c2.82-2.52,5.6-5.12,8.2-7.78a98.67,98.67,0,0,0,7.22-8.58,90.11,90.11,0,0,0,11-19.54A98.15,98.15,0,0,0,472,74.91c.56-1.8,1-3.63,1.46-5.45s.84-3.68,1.15-5.54A137.94,137.94,0,0,0,477,41.4a207.24,207.24,0,0,0-4.39-45.32.2.2,0,0,1,.15-.23A.21.21,0,0,1,473-4Z"/><path class="cls-3" d="M553.66-4l1.75,14.6c.32,2.43.45,4.87.69,7.31l.61,7.32c.78,9.76,1.53,19.53,2,29.32.89,19.57,1.46,39.25-.6,58.88a145.62,145.62,0,0,1-5.76,29.06c-.39,1.18-.75,2.37-1.16,3.55l-1.34,3.48c-.23.58-.44,1.17-.68,1.74l-.77,1.7c-.52,1.13-1,2.28-1.56,3.4-1.2,2.19-2.27,4.45-3.64,6.54-.67,1.06-1.27,2.15-2,3.17L539,169.15a86.42,86.42,0,0,1-9.89,11.21c-1.75,1.78-3.69,3.34-5.56,5-.94.81-1.94,1.54-2.92,2.32s-1.93,1.55-3,2.25a188.06,188.06,0,0,1-25.37,15.25A163.41,163.41,0,0,1,465,216.55a141,141,0,0,1-29.1,5.32c-9.83.75-19.64.72-29.41.92a194.28,194.28,0,0,0-29.13,2.45,134.22,134.22,0,0,0-28.05,8,181.7,181.7,0,0,0-26,13.27,266.18,266.18,0,0,0-24,16.73c-1.95,1.46-3.8,3.06-5.71,4.58s-3.82,3-5.65,4.66c-3.71,3.19-7.35,6.38-11.14,9.57-1.85,1.64-3.87,3.07-5.8,4.6-1,.78-2,1.43-3,2.16s-2,1.43-3,2.1l-3.14,2-1.57,1-1.62.9-3.23,1.82c-1.09.59-2.22,1.11-3.32,1.67-2.2,1.15-4.49,2.08-6.76,3.08-1.13.52-2.31.9-3.46,1.35s-2.31.91-3.5,1.27c-2.37.74-4.72,1.54-7.14,2.11-1.2.29-2.39.65-3.61.9l-3.65.74c-1.21.28-2.45.43-3.67.62s-2.46.4-3.69.52c-2.48.23-5,.53-7.44.59a104.41,104.41,0,0,1-14.9-.33,108.43,108.43,0,0,1-29-6.86,117.69,117.69,0,0,1-13.56-6.21c-2.16-1.23-4.37-2.38-6.45-3.75l-3.15-2L139,288.22a134.72,134.72,0,0,1-22.25-19.74c-13.41-14.68-23.63-32-31-50.37a226.06,226.06,0,0,1-14.36-57.32,308.2,308.2,0,0,1-1.23-59c.71-9.8,1.77-19.58,3.31-29.28.68-4.86,1.62-9.68,2.47-14.51.44-2.42,1-4.81,1.45-7.22s1-4.81,1.53-7.2c1.11-4.77,2.16-9.56,3.46-14.29C83,27,83.6,24.58,84.26,22.22l2-7.07,1-3.53,1.09-3.51,2.2-7c1.49-4.67,3.14-9.28,4.7-13.92a.21.21,0,0,1,.26-.13.2.2,0,0,1,.12.25h0C94.26-8,92.79-3.34,91.43,1.36l-2,7.05-1,3.53-.92,3.56L85.7,22.59C85.11,25,84.59,27.35,84,29.73c-1.15,4.75-2.13,9.54-3.13,14.32-.53,2.38-.93,4.79-1.38,7.19s-.91,4.79-1.3,7.2c-.74,4.83-1.58,9.64-2.16,14.48C74.72,82.59,73.9,92.31,73.28,102a304,304,0,0,0,1.93,58.26,261.24,261.24,0,0,0,5.45,28.6,210.09,210.09,0,0,0,9,27.61,184,184,0,0,0,12.94,25.94,158.59,158.59,0,0,0,17.23,23.23A129.79,129.79,0,0,0,141.32,285l3,2.08,3,1.94c2,1.34,4.13,2.46,6.21,3.68a115,115,0,0,0,13.08,6.09,106.54,106.54,0,0,0,13.74,4.38c2.35.53,4.68,1.1,7.06,1.46s4.76.73,7.15,1a100.56,100.56,0,0,0,14.42.49c2.41,0,4.8-.29,7.2-.48,1.2-.1,2.39-.31,3.59-.46s2.39-.3,3.57-.56a109.12,109.12,0,0,0,27.51-8.79c1.08-.53,2.19-1,3.27-1.57l3.19-1.72,1.6-.86,1.56-.93,3.11-1.88c1-.64,2-1.34,3-2s2-1.31,3-2.06c1.92-1.47,3.94-2.83,5.78-4.41,3.75-3,7.52-6.25,11.28-9.38,1.86-1.6,3.84-3.06,5.75-4.6s3.83-3.06,5.82-4.51c3.95-2.9,7.88-5.85,12-8.56,2-1.39,4-2.8,6.12-4.09s4.13-2.65,6.23-3.92c16.8-10.11,35.18-18,54.59-21.37,19.4-3.65,39.22-2.44,58.57-4.32a139.52,139.52,0,0,0,28.46-5.77c2.28-.81,4.59-1.55,6.84-2.43l3.37-1.37c1.12-.46,2.24-.9,3.33-1.43,2.19-1.05,4.41-2,6.57-3.12s4.37-2.17,6.51-3.32a197.65,197.65,0,0,0,24.79-15.16c1-.68,1.92-1.46,2.88-2.2s1.91-1.47,2.82-2.25c1.8-1.6,3.68-3.11,5.36-4.83a86.77,86.77,0,0,0,9.56-10.72l2.1-2.92c.7-1,1.29-2,1.94-3,1.33-2,2.37-4.16,3.54-6.26.53-1.08,1-2.17,1.52-3.26l.76-1.63c.24-.56.45-1.12.67-1.68l1.32-3.36c.4-1.13.76-2.28,1.15-3.42a142.09,142.09,0,0,0,5.84-28.4c1.07-9.66,1.61-19.4,1.81-29.15s0-19.53-.26-29.3-.74-19.55-1.24-29.32L555,18c-.16-2.44-.22-4.89-.47-7.32L553.26-3.94h0a.2.2,0,0,1,.19-.21A.2.2,0,0,1,553.66-4Z"/><path class="cls-3" d="M634.72-3.26c8.18,27.91,13.07,57,12.51,86.3A204.2,204.2,0,0,1,642,126.58a192.62,192.62,0,0,1-14.78,41.36,190.44,190.44,0,0,1-23.84,36.9,220.55,220.55,0,0,1-31.2,30.89,293.41,293.41,0,0,1-36.08,24.88,410.29,410.29,0,0,1-39.06,19.71h0a.14.14,0,0,1-.09,0c-4.94,1.19-9.84,2.54-14.85,3.43l-3.74.74-3.76.6c-2.5.4-5,.82-7.52,1.15l-15,2.07-7.48,1.18c-2.5.38-5,.92-7.45,1.38l-3.72.73-3.68.89-7.35,1.8-7.27,2.13c-2.42.71-4.85,1.39-7.23,2.26-9.59,3.17-19,6.82-28.33,10.74l-13.86,6.15c-4.57,2.16-9.1,4.39-13.66,6.58-2.27,1.11-4.55,2.19-6.81,3.32L338.45,329,325,336q-13.31,7.31-26.54,14.71l-26.26,15.19h0l-.15.07a270.48,270.48,0,0,1-25.67,9.54c-8.7,2.74-17.51,5.15-26.42,7.11-17.81,3.93-36.1,6.25-54.46,5.68a137.26,137.26,0,0,1-27.35-3.47,106.52,106.52,0,0,1-13.27-4,94,94,0,0,1-12.65-5.74,87.26,87.26,0,0,1-22-16.91l-2.36-2.56L85.66,353c-.76-.88-1.45-1.81-2.13-2.75s-1.39-1.86-2-2.81c-1.25-1.95-2.61-3.83-3.73-5.86l-1.74-3-1.59-3.08c-1.11-2-2-4.17-3-6.26s-1.73-4.27-2.57-6.41-1.52-4.35-2.18-6.55l-1-3.32c-.33-1.1-.65-2.2-.9-3.32L61.68,296.4c-.51-2.19-1.18-4.34-1.76-6.52s-1.17-4.36-1.87-6.51c-5.21-17.28-11.56-34.25-18.18-51.11s-13.58-33.6-20.42-50.4S5.92,148.19-.19,131.1a.19.19,0,0,1,.12-.25.2.2,0,0,1,.26.11c6.67,16.86,13.74,33.55,21,50.19s14.42,33.28,21.37,50S55.94,265,61.42,282.35c.73,2.15,1.31,4.36,2,6.55s1.31,4.36,1.85,6.58l3.35,13.18a123.29,123.29,0,0,0,9.46,25l1.54,3,1.69,2.87c1.08,1.95,2.4,3.74,3.6,5.6.64.91,1.32,1.78,2,2.67s1.33,1.78,2,2.62L91,352.91l2.26,2.43a86.08,86.08,0,0,0,21,16,88.39,88.39,0,0,0,12.09,5.5,102,102,0,0,0,12.76,3.85,137.92,137.92,0,0,0,26.51,3.48c17.91.67,35.91-1.48,53.51-5.25,8.81-1.88,17.53-4.2,26.14-6.87s17.17-5.64,25.41-9.12l-.16.08L297,348.12q13.39-7.2,26.84-14.29l13.6-6.81,6.79-3.4c2.28-1.11,4.59-2.16,6.88-3.23,4.6-2.14,9.18-4.31,13.8-6.41l14-6c2.32-1,4.7-1.9,7.06-2.82l7.09-2.74,3.55-1.37,3.61-1.22,7.2-2.44c2.39-.86,4.84-1.53,7.28-2.23l7.31-2.1,7.4-1.77,3.71-.88,3.73-.72c2.49-.48,5-1,7.47-1.44l7.51-1.24,15-2.18a226.83,226.83,0,0,0,29.61-6.16l-.12,0a413.71,413.71,0,0,0,38.48-20.29,292.19,292.19,0,0,0,35.27-25.25,231.3,231.3,0,0,0,30.52-30.64,196.21,196.21,0,0,0,23.58-36.14A189.09,189.09,0,0,0,639,125.87,214.3,214.3,0,0,0,644.75,83c1-28.95-3.21-58-10.41-86.12a.2.2,0,0,1,.14-.25A.21.21,0,0,1,634.72-3.26Z"/><path class="cls-3" d="M728.17,0l1.64,7.47.82,3.74.7,3.76,1.38,7.53L733.86,30l.57,3.79c.18,1.26.3,2.53.46,3.8l.88,7.61c.26,2.54.43,5.09.65,7.64s.43,5.09.5,7.65A307.56,307.56,0,0,1,734,121.75a304.36,304.36,0,0,1-15.38,59.41l-2.79,7.16c-.94,2.38-1.84,4.78-2.92,7.11l-3.1,7c-.53,1.17-1,2.36-1.58,3.5l-1.69,3.45-3.42,6.88-.86,1.72-.93,1.69-1.85,3.36-3.71,6.73c-1.26,2.23-2.63,4.39-3.95,6.59l-4,6.56c-1.39,2.14-2.83,4.26-4.25,6.39l-4.26,6.39-4.51,6.21-4.53,6.19c-1.56,2-3.17,4-4.76,6l-4.76,6c-1.59,2-3.3,3.9-4.95,5.86-3.34,3.87-6.59,7.82-10.11,11.52l-5.19,5.64L637.94,306c-.88.93-1.79,1.82-2.68,2.74-3.6,3.62-7.15,7.29-10.79,10.87l-11.13,10.53c-15,13.83-30.67,26.94-46.82,39.41-8.17,6.11-16.22,12.38-24.61,18.2l-6.23,4.44c-1,.73-2.06,1.51-3.14,2.19l-3.25,2-13,8.06-6.49,4.06-3.25,2-3.33,1.89L489.88,420c-8.79,5.21-18,9.61-27.09,14.29L456,437.72l-7,3.16-14,6.31-3.5,1.58c-1.17.51-2.37,1-3.55,1.43L420.83,453l-14.28,5.58c-19.31,6.68-38.8,13-58.83,17.31l-7.48,1.73-1.87.43-1.89.34-3.78.69-15.11,2.73c-5.06.74-10.15,1.35-15.22,2-2.54.3-5.07.71-7.62.94l-7.66.63-7.65.64-3.83.31-3.84.13-15.36.51-15.37-.2c-1.28,0-2.56,0-3.84-.07l-3.83-.23-7.68-.46a386.67,386.67,0,0,1-60.74-9,373,373,0,0,1-58.44-18.82c-18.82-8.08-37.18-17.29-53.89-29.43a1,1,0,0,1-.23-.24h0C47.59,422,43,415.31,38.46,408.6s-9-13.48-13.36-20.31-8.66-13.7-12.86-20.62S3.9,353.78-.17,346.79a.2.2,0,0,1,.07-.28.21.21,0,0,1,.27.07q6.42,10.31,13,20.52c4.36,6.82,8.84,13.56,13.34,20.28s9.07,13.39,13.72,20,9.36,13.2,14.22,19.63l-.25-.25c4.06,2.91,8.38,5.63,12.73,8.2,2.17,1.3,4.4,2.51,6.6,3.77l6.7,3.6c9,4.68,18.24,8.87,27.61,12.76a372.77,372.77,0,0,0,58,18A390.85,390.85,0,0,0,226,481.79l7.59.46,3.8.23c1.26,0,2.53,0,3.8.07l15.2.22,15.21-.48,3.8-.11,3.79-.29,7.58-.58,7.59-.58c2.53-.21,5-.6,7.55-.89,5-.65,10.08-1.22,15.1-1.93l15-2.61,3.75-.66,1.88-.33,1.85-.42,7.43-1.67,7.43-1.67,3.71-.84c.62-.14,1.24-.26,1.86-.42l1.83-.51,14.69-4.06,3.67-1c1.22-.34,2.45-.65,3.65-1.07l7.24-2.37,14.49-4.74,14.25-5.4,7.13-2.72c1.18-.46,2.38-.87,3.55-1.37l3.5-1.51,14-6.06,7-3,6.85-3.35c9.12-4.5,18.37-8.76,27.21-13.83l13.39-7.33,3.35-1.83,3.26-2,6.53-4c34.93-20.92,67-46.52,96.71-74.26a497.84,497.84,0,0,0,41.53-44.65c1.61-2,3.28-3.89,4.82-5.9l4.64-6.05c1.53-2,3.1-4,4.61-6.06l4.39-6.22,4.41-6.21,4.16-6.37c1.39-2.12,2.8-4.23,4.16-6.37l3.91-6.53c1.29-2.18,2.65-4.32,3.89-6.53l3.66-6.67L698.2,218l.91-1.67.85-1.7,3.38-6.81,1.7-3.4c.57-1.13,1.05-2.31,1.58-3.46l3.11-6.93c1.08-2.3,2-4.66,2.93-7l2.82-7.06a302.06,302.06,0,0,0,15.6-58.69,305,305,0,0,0,3.84-60.68A375.67,375.67,0,0,0,727.78,0a.2.2,0,0,1,.15-.24A.21.21,0,0,1,728.17,0Z"/><path class="cls-3" d="M828.65,0c1.42,15.49.12,31.1-1.72,46.49s-4.34,30.72-6,46.1-2.49,30.83-1.49,46.19c.47,7.64,1.48,15.4,1.84,23.2s.46,15.59.19,23.39a234.48,234.48,0,0,1-6.38,46.33,224.21,224.21,0,0,1-6.74,22.43,230.64,230.64,0,0,1-9,21.64,278.22,278.22,0,0,1-23.61,40.32,396.26,396.26,0,0,1-29,36.51l.23-.4a257.52,257.52,0,0,1-12,29A173.74,173.74,0,0,1,718.88,408a118.6,118.6,0,0,1-21.7,22.61,114,114,0,0,1-27.08,15.72,170,170,0,0,1-30,9c-10.21,2.21-20.51,3.8-30.75,5.63A275.51,275.51,0,0,0,579,467.82a120.79,120.79,0,0,0-28.32,12.33l.19-.14C533,496.78,514.27,512.72,494,526.69A333.1,333.1,0,0,1,462.63,546,269.9,269.9,0,0,1,429,561.23a250.18,250.18,0,0,1-35.53,10.19,294.72,294.72,0,0,1-36.57,5.17c-12.27,1-24.56,1.33-36.83,1.38s-24.52-.2-36.76-.52-24.43-.53-36.71-1-24.51-1.19-36.73-2.28A698.36,698.36,0,0,1,137,564a532.77,532.77,0,0,1-71-19,366.8,366.8,0,0,1-34.12-13.7A268.4,268.4,0,0,1-.46,513.74a.21.21,0,0,1-.06-.28.2.2,0,0,1,.27-.06,283.58,283.58,0,0,0,32.62,16.66C43.56,535,55,539.21,66.61,543a545.53,545.53,0,0,0,71,17.88,692.27,692.27,0,0,0,72.57,9.51q18.25,1.41,36.56,2c12.17.36,24.45.5,36.67.79,24.45.52,48.89,1.06,73.16-.81a290,290,0,0,0,36.1-4.9,247.84,247.84,0,0,0,35-9.84c22.84-8.28,44.37-20,64.53-33.65a511.92,511.92,0,0,0,57.1-45.7h0a1,1,0,0,1,.18-.13,123.24,123.24,0,0,1,29-12.19,275.86,275.86,0,0,1,30.63-6.52c10.28-1.73,20.57-3.32,30.73-5.46a168.39,168.39,0,0,0,29.81-8.8,107.72,107.72,0,0,0,26.72-15.63,116.9,116.9,0,0,0,21.3-22.46,142.88,142.88,0,0,0,8.51-13c2.58-4.5,5-9.08,7.21-13.77a257,257,0,0,0,11.42-28.92,1.09,1.09,0,0,1,.21-.38l0,0c20.19-23.38,38.18-48.84,51.2-76.78a238.2,238.2,0,0,0,15.45-43.42,230.87,230.87,0,0,0,6.55-45.62q.48-11.53-.05-23.1c-.31-7.7-1.26-15.34-1.7-23.18-.81-15.6.28-31.21,2.15-46.63s4.55-30.71,6.78-46S829.16,15.49,828.25,0a.2.2,0,0,1,.19-.21A.2.2,0,0,1,828.65,0Z"/></g><g class="cls-2"><path class="cls-3" d="M1404.48,439.49c4.2,3.78,8.39,7.39,12.68,11s8.68,7,13.1,10.38a209,209,0,0,0,27.81,18.21,75.5,75.5,0,0,0,15.13,6.2,34.2,34.2,0,0,0,7.84,1.22,16.72,16.72,0,0,0,7.38-1.41,14.82,14.82,0,0,0,1.61-.88,13.12,13.12,0,0,0,1.45-1.13,12.37,12.37,0,0,0,1.3-1.31c.22-.22.39-.49.59-.73l.62-.8a11.87,11.87,0,0,1,3.65-3.3,8.89,8.89,0,0,1,5-1.08,12.19,12.19,0,0,1,4.67,1.36,19.38,19.38,0,0,1,3.79,2.56,35.5,35.5,0,0,1,5.86,6.55,59.64,59.64,0,0,1,7.51,15.41,68.17,68.17,0,0,1,3.24,16.72c.77,11.3-1.63,23-7.79,32.55a50.08,50.08,0,0,1-11.39,12.46A66,66,0,0,1,1494,572c-10.38,4.44-21.53,6.72-32.71,7.88-5.6.52-11.22.83-16.84.86-2.81,0-5.62,0-8.43-.09s-5.63-.23-8.43-.53a148.72,148.72,0,0,1-16.78-2.31,121.93,121.93,0,0,1-16.39-4.48,91.9,91.9,0,0,1-29.63-16.76A75.1,75.1,0,0,1,1344.6,529a79.19,79.19,0,0,1,2.8-66.47,58.47,58.47,0,0,1,10.06-13.83,45.77,45.77,0,0,1,14-9.85,39.72,39.72,0,0,1,8.16-2.59,41.14,41.14,0,0,1,8.5-.66A44.47,44.47,0,0,1,1404.48,439.49Zm-.22.33a46,46,0,0,0-16.19-3,39.68,39.68,0,0,0-8.13,1,40.83,40.83,0,0,0-7.67,2.77,43.47,43.47,0,0,0-12.92,9.81,59.81,59.81,0,0,0-9.17,13.47,72.83,72.83,0,0,0-5.57,15.35,78.48,78.48,0,0,0-2.07,16.21,76.53,76.53,0,0,0,6,31.8,72.36,72.36,0,0,0,8,14.11,75,75,0,0,0,11,12,87.85,87.85,0,0,0,28.17,16.37,135.51,135.51,0,0,0,32.19,7.18,202.41,202.41,0,0,0,33.22.73,136.56,136.56,0,0,0,16.47-2.21,83.7,83.7,0,0,0,15.89-4.74,61.7,61.7,0,0,0,14.34-8.23c.56-.4,1.07-.86,1.6-1.31s1.06-.88,1.56-1.36c1-1,2-1.9,2.89-2.95a44.76,44.76,0,0,0,5-6.57,46.5,46.5,0,0,0,6-15.28,56.39,56.39,0,0,0,.68-16.4,60.16,60.16,0,0,0-1.34-8.11,62.92,62.92,0,0,0-2.33-7.87,58,58,0,0,0-7.56-14.39,31.68,31.68,0,0,0-5.38-5.8,12.14,12.14,0,0,0-6.47-3.05c-2.19-.22-4.11,1-5.54,3a17.22,17.22,0,0,1-7,5.93,20.25,20.25,0,0,1-8.94,1.66,37.67,37.67,0,0,1-8.66-1.41,77.45,77.45,0,0,1-15.7-6.75,148.28,148.28,0,0,1-14.28-9c-4.6-3.24-9-6.67-13.38-10.22s-8.55-7.25-12.67-11S1408.07,443.81,1404.26,439.82Z"/><path class="cls-3" d="M1531.88,413.87a8.52,8.52,0,0,1,5.29-1.08,18.81,18.81,0,0,1,5.24,1.35,51.7,51.7,0,0,1,9.42,5.19c3,2,5.82,4.19,8.6,6.45s5.51,4.58,8.18,7c5.35,4.76,10.5,9.73,15.61,14.75s10.13,10.12,15.12,15.24l14.92,15.44L1618,482l1.87,1.92c.62.65,1.25,1.25,1.87,2a27,27,0,0,1,5.21,9.78c2.19,7,2.62,14.38,2.59,21.6a142.73,142.73,0,0,1-2.1,21.56,212.31,212.31,0,0,1-11.76,41.54A225.11,225.11,0,0,1,1596.22,619,178.53,178.53,0,0,1,1569,652.57a124.34,124.34,0,0,1-35.75,24.24,96.48,96.48,0,0,1-42.25,8.11,133.43,133.43,0,0,1-21.4-2.75c-7-1.37-14-3-20.93-4.92A382.82,382.82,0,0,1,1408,663.41c-13.3-5.32-26.33-11.32-39.08-17.86a527.52,527.52,0,0,1-73.11-45.12,349.37,349.37,0,0,1-33.14-27.52,169.35,169.35,0,0,1-14.81-15.81,71,71,0,0,1-6.29-9,33.34,33.34,0,0,1-2.4-5.16,12.41,12.41,0,0,1-.65-6.21v.77c-5-22.06-8.36-44.73-7.72-67.54a157.59,157.59,0,0,1,4.44-33.93,115.48,115.48,0,0,1,13-31.8,104,104,0,0,1,22.35-26.13,123,123,0,0,1,29.3-17.87,171.36,171.36,0,0,1,32.61-10.31,256.72,256.72,0,0,1,33.77-4.55h.24a62.21,62.21,0,0,1,23.44,6.94,122.41,122.41,0,0,1,20.14,13.4c12.55,10,23.85,21.35,35.92,31.73a177.79,177.79,0,0,0,18.91,14.5,76.33,76.33,0,0,0,21.49,10,51.14,51.14,0,0,0,23.56.92A67.08,67.08,0,0,0,1531.88,413.87Zm.21.34a67.46,67.46,0,0,1-22.06,9.16,52.8,52.8,0,0,1-23.85-.71,80,80,0,0,1-21.89-9.79,178.64,178.64,0,0,1-19.36-14.22c-12.32-10.19-23.89-21.25-36.5-30.87a119.31,119.31,0,0,0-19.94-12.65,59.08,59.08,0,0,0-22.25-6.29h.25a253.83,253.83,0,0,0-33.2,4.92c-5.43,1.29-10.85,2.63-16.15,4.35a157,157,0,0,0-15.62,5.89,119.64,119.64,0,0,0-28.21,17.37,99.38,99.38,0,0,0-21.46,25.05A114.65,114.65,0,0,0,1239.28,437a153.47,153.47,0,0,0-4.5,33c-.76,22.35,2.4,44.72,7.24,66.64a1.68,1.68,0,0,1,0,.74v0a9.16,9.16,0,0,0,.5,4.34,29.67,29.67,0,0,0,2.08,4.58,68.18,68.18,0,0,0,5.9,8.62,169.47,169.47,0,0,0,14.36,15.64,372.45,372.45,0,0,0,32.51,27.71c11.34,8.66,23.09,16.8,35.14,24.45s24.41,14.85,37.09,21.44c25.36,13.11,51.84,24.33,79.46,31.65q10.35,2.76,20.86,4.77c1.75.34,3.51.64,5.27.93l2.64.44,2.64.34,2.64.33,2.65.19c.89.06,1.77.14,2.66.18l2.65.06a94.35,94.35,0,0,0,41.21-8.6,121.87,121.87,0,0,0,34.56-24.23,183,183,0,0,0,26.38-33.23,234.89,234.89,0,0,0,19.19-38c2.62-6.59,4.93-13.32,7-20.12a196.33,196.33,0,0,0,5-20.67,145.49,145.49,0,0,0,2.47-21.08c.19-7-.1-14.19-2.05-20.9a24.89,24.89,0,0,0-4.59-9.13c-.51-.65-1.16-1.3-1.77-2l-1.83-2-3.66-3.93-14.6-15.73c-9.77-10.44-19.63-20.81-30.19-30.45a153.48,153.48,0,0,0-16.62-13.49,51.21,51.21,0,0,0-9.32-5.18,18.35,18.35,0,0,0-5.11-1.33A8.11,8.11,0,0,0,1532.09,414.21Z"/><path class="cls-3" d="M1600.72,343.26a5.34,5.34,0,0,1,2.68-1.29,8.25,8.25,0,0,1,1.49-.13c.5,0,1,.08,1.48.12a24,24,0,0,1,5.63,1.73,67,67,0,0,1,10.22,5.67,196.46,196.46,0,0,1,18.57,14.16,450.18,450.18,0,0,1,33.78,32.18c10.7,11.29,21,23,30.54,35.31a233.48,233.48,0,0,1,13.49,19.14,95.12,95.12,0,0,1,5.65,10.37,42.45,42.45,0,0,1,2.1,5.66l.35,1.51c.1.52.15,1.05.23,1.58s0,1.1,0,1.64a9.42,9.42,0,0,1-.27,1.73l-.28.88-.23.61c-.15.38-.25.83-.37,1.25-.2.88-.36,1.79-.48,2.72-.24,1.86-.37,3.77-.46,5.69-.18,3.83-.21,7.71-.26,11.59-.09,7.76-.17,15.54-.44,23.32a377.06,377.06,0,0,1-4.32,46.57c-4.9,30.81-14.54,61-29.59,88.5a258.18,258.18,0,0,1-26.13,38.89c-4.92,6.06-10.16,11.9-15.55,17.52s-10.76,11.22-16.22,16.76c-11,11-22.15,21.88-33.89,32.13-1.45,1.3-2.93,2.56-4.44,3.81l-4.48,3.75c-3.08,2.4-6.07,4.9-9.24,7.18-1.58,1.15-3.11,2.37-4.73,3.46l-4.83,3.32c-3.3,2.11-6.57,4.24-10,6.12a117,117,0,0,1-21.43,9.59,89.08,89.08,0,0,1-23.09,4.3,100.78,100.78,0,0,1-23.4-1.62,162.18,162.18,0,0,1-22.6-6c-1.84-.65-3.7-1.23-5.52-2l-5.45-2.08c-1.81-.72-3.6-1.49-5.4-2.23s-3.59-1.51-5.36-2.31c-7.14-3.1-14.14-6.49-21-10.1A205.81,205.81,0,0,1,1407.61,762a222.67,222.67,0,0,1-18.16-14.68c-11.6-10.42-21.94-22.07-32.76-33.18s-22.26-21.63-35-30.43a195.17,195.17,0,0,0-19.8-12.07c-6.79-3.71-13.86-6.87-21-9.92a335.33,335.33,0,0,0-44.1-14.47l-11.29-2.72c-3.77-.9-7.58-1.63-11.36-2.45s-7.61-1.63-11.43-2.47c-3.79-1-7.59-2-11.3-3.21a157.15,157.15,0,0,1-21.8-8.74,162.65,162.65,0,0,1-20.24-12,148.35,148.35,0,0,1-18.22-14.87,158.22,158.22,0,0,1-15.78-17.45,156.51,156.51,0,0,1-22.76-41.07,161.69,161.69,0,0,1-6.44-22.66,152.86,152.86,0,0,1-3-23.36,173,173,0,0,1,.37-23.55,178.93,178.93,0,0,1,3.73-23.25,186.78,186.78,0,0,1,16.41-44l2.79-5.18c.92-1.73,2-3.39,3-5.08,1.95-3.41,4.17-6.65,6.28-10a230.94,230.94,0,0,1,14.19-18.74c5-6.06,10.38-11.73,15.86-17.32l4.24-4.06c1.42-1.34,2.81-2.73,4.29-4,2.93-2.58,5.79-5.26,8.84-7.72a329.57,329.57,0,0,1,38-27.4c26.55-16.49,55-29.64,84.29-40.33l-.19.08a46.75,46.75,0,0,1,6.1-2.19c2-.61,4.09-1.08,6.15-1.51a97.06,97.06,0,0,1,12.46-1.66,121.13,121.13,0,0,1,25,1,152.46,152.46,0,0,1,24.31,5.49,210,210,0,0,1,23.21,8.92,266,266,0,0,1,42.69,25.16,387.62,387.62,0,0,1,38.09,31.58l-.19-.15a166.66,166.66,0,0,0,32.42,15.21,150,150,0,0,0,17.31,4.7c2.91.69,5.88,1.1,8.83,1.61s5.94.8,8.92,1a145.9,145.9,0,0,0,35.85-1.36,148,148,0,0,0,17.56-3.94A110.61,110.61,0,0,0,1600.72,343.26Zm.24.32a109.49,109.49,0,0,1-16.85,6.66,145,145,0,0,1-17.6,4.24,147.22,147.22,0,0,1-36.13,1.88c-3-.17-6-.56-9-.89-3-.48-6-.86-8.95-1.5a150.29,150.29,0,0,1-17.58-4.57,169.28,169.28,0,0,1-33-15.07,1.09,1.09,0,0,1-.17-.13l0,0a386.07,386.07,0,0,0-38.15-31,269.54,269.54,0,0,0-42.37-24.55,206.71,206.71,0,0,0-22.87-8.63,150.53,150.53,0,0,0-23.79-5.22,117.74,117.74,0,0,0-24.24-.8,94,94,0,0,0-12,1.67c-2,.43-3.92.89-5.82,1.48a43.11,43.11,0,0,0-5.49,2l-.05,0-.14.06c-29,10.84-57.2,23.87-83.39,40.28a335.24,335.24,0,0,0-37.47,27.12c-3,2.42-5.82,5.06-8.71,7.6-1.46,1.26-2.83,2.62-4.22,3.95l-4.18,4c-5.4,5.5-10.72,11.07-15.61,17a228.18,228.18,0,0,0-13.93,18.39c-2.09,3.23-4.28,6.39-6.19,9.73-1,1.66-2,3.27-2.92,5l-2.76,5.06a182.59,182.59,0,0,0-16.19,43,174.38,174.38,0,0,0-3.73,22.7,168.2,168.2,0,0,0-.45,23,149.79,149.79,0,0,0,2.9,22.81,157,157,0,0,0,6.2,22.14,151.64,151.64,0,0,0,37.37,57.42,144.19,144.19,0,0,0,17.75,14.67,155.51,155.51,0,0,0,41.1,20.62c3.63,1.26,7.36,2.24,11.08,3.26,3.75.86,7.49,1.73,11.31,2.56s7.62,1.63,11.39,2.57l11.33,2.84a341.67,341.67,0,0,1,44.26,14.94c7.14,3.13,14.23,6.38,21,10.18a195.44,195.44,0,0,1,19.86,12.33,241.62,241.62,0,0,1,35.1,30.74c10.81,11.17,21.1,22.83,32.6,33.22a199.08,199.08,0,0,0,18,14.59,207.35,207.35,0,0,0,19.76,12.16c6.87,3.55,13.87,6.91,21,10,1.77.79,3.55,1.56,5.35,2.28s3.58,1.48,5.38,2.19l5.43,2.05c1.81.71,3.66,1.27,5.48,1.91a152.89,152.89,0,0,0,22.41,5.85,99.69,99.69,0,0,0,23,1.37,87.4,87.4,0,0,0,22.53-4.44,115.13,115.13,0,0,0,20.93-9.62c3.36-1.88,6.57-4,9.8-6.13l4.73-3.33c1.59-1.09,3.09-2.31,4.64-3.46,3.12-2.29,6.06-4.8,9.08-7.21l4.42-3.76q2.21-1.87,4.37-3.82c11.55-10.3,22.59-21.2,33.4-32.31q8.12-8.34,16.1-16.81c5.32-5.62,10.44-11.38,15.27-17.4a255.59,255.59,0,0,0,25.73-38.38c14.88-27,24.56-56.82,29.52-87.3a373.47,373.47,0,0,0,4.46-46.16c.3-7.74.41-15.48.53-23.26.07-3.88.15-7.78.37-11.69.1-2,.26-3.93.54-5.92a29.92,29.92,0,0,1,.56-3,15.87,15.87,0,0,1,.47-1.54l.29-.75.16-.51a7.83,7.83,0,0,0,.19-1.13c0-.42,0-.84,0-1.27s-.1-.87-.18-1.31l-.29-1.32a40,40,0,0,0-1.9-5.27,92.82,92.82,0,0,0-5.4-10.12,228.27,228.27,0,0,0-13.17-19.06c-9.37-12.32-19.51-24.08-30.06-35.44A447.24,447.24,0,0,0,1640,364.43a198.59,198.59,0,0,0-18.25-14.36,67,67,0,0,0-10-5.81,22.91,22.91,0,0,0-5.45-1.79A6.3,6.3,0,0,0,1601,343.58Z"/><path class="cls-3" d="M1563.28,222.62c10.4,4.17,20.46,8.69,30.53,13.41s20,9.71,29.8,14.89A663.67,663.67,0,0,1,1681,284.81a462.82,462.82,0,0,1,52.88,40.61A309.76,309.76,0,0,1,1757.52,349a228.6,228.6,0,0,1,20.56,26.4c.79,1.15,1.52,2.35,2.26,3.53s1.5,2.36,2.21,3.56c1.38,2.44,2.84,4.83,4.11,7.33a151.37,151.37,0,0,1,7.08,15.23c1,2.63,2,5.23,2.85,7.92.41,1.34.9,2.66,1.26,4l1.11,4.06a116.53,116.53,0,0,1,3,16.59c.39,2.78.43,5.6.62,8.41s.16,5.57.17,8.35,0,5.57,0,8.35,0,5.57-.11,8.35q-.35,16.68-1.51,33.33-2.3,33.27-7.33,66.29c-1.63,11-3.59,21.95-5.74,32.86s-4.57,21.78-7.21,32.58A603.5,603.5,0,0,1,1761.49,700q-5.79,15.66-12.6,30.92c-4.64,10.13-9.54,20.13-14.93,29.88s-11.21,19.26-17.55,28.43a295.59,295.59,0,0,1-20.54,26.36A253.36,253.36,0,0,1,1672,839a212.08,212.08,0,0,1-27.22,19.4l-7.27,4.13c-2.47,1.28-5,2.48-7.48,3.73s-5.07,2.3-7.63,3.4-5.12,2.22-7.77,3.09a181.3,181.3,0,0,1-32.21,8.74l-8.24,1.36-8.31.86c-1.38.13-2.76.33-4.15.4l-4.17.19c-2.79.1-5.56.31-8.35.32l-8.34-.09c-1.39,0-2.79,0-4.17-.1l-4.17-.27c-2.77-.19-5.55-.33-8.32-.57l-8.29-1c-22.08-2.74-43.73-8.33-64.73-15.59a486.15,486.15,0,0,1-61.2-26.31h0l-.06,0c-5-3.61-10.14-7.1-15-11l-3.66-2.86-3.57-3c-2.36-2-4.77-3.93-7.09-6l-14-12.09c-4.72-4-9.42-8-14.3-11.7-19.29-15.33-40.44-28.13-62.12-39.82l-16.41-8.51-2-1.06-2.08-1-4.17-2-8.33-4-8.33-4-8.43-3.81-16.86-7.58c-5.64-2.5-11.35-4.83-17-7.25l-17-7.2-34.33-13.79h0L1135,694c-9.78-5.14-19.17-10.77-28.42-16.7s-18.26-12.2-27-18.82c-17.52-13.23-34.08-27.86-48.64-44.43A207.78,207.78,0,0,1,1011,587.64a154,154,0,0,1-8.12-14.47,130.42,130.42,0,0,1-6.45-15.33,109.61,109.61,0,0,1-6.26-32.69,101.06,101.06,0,0,1,4.48-33c.74-2.69,1.8-5.27,2.72-7.9.51-1.29,1.08-2.57,1.62-3.85s1.07-2.57,1.71-3.8l1.84-3.75c.61-1.25,1.33-2.43,2-3.66s1.32-2.44,2.06-3.62l2.2-3.53c1.48-2.38,2.91-4.6,4.37-6.91s2.8-4.65,4.2-7l4-7.11c1.27-2.41,2.58-4.79,3.82-7.21,10-19.34,18.56-39.44,26.88-59.64s16.27-40.59,24.69-60.81,17.2-40.33,27.16-59.9,21.09-38.64,34.68-56A192.75,192.75,0,0,1,1161,173.1a134.37,134.37,0,0,1,27-19.24,114.33,114.33,0,0,1,31.25-11.19,121.78,121.78,0,0,1,33.1-1.91,163.69,163.69,0,0,1,32.53,6l4,1.17,2,.58,1.95.67,7.81,2.71c5.1,2,10.25,4,15.22,6.35,5.06,2.17,9.92,4.73,14.85,7.17,2.44,1.25,4.83,2.61,7.24,3.92s4.83,2.61,7.17,4l7.08,4.19c2.37,1.39,4.65,2.92,7,4.38s4.65,2.91,6.92,4.44l6.8,4.61c17.79,12.59,38.69,19.92,59.91,24.69s43.08,7.11,64.9,8.11q16.36.75,32.77.44C1541.43,224,1552.29,223.57,1563.28,222.62Zm-.06.4c-10.8,1.1-21.8,1.7-32.72,2s-21.89.3-32.84-.08c-21.87-.78-43.78-2.87-65.25-7.47a211.47,211.47,0,0,1-31.61-9.26,147.19,147.19,0,0,1-15.07-6.76l-3.66-1.93c-1.2-.69-2.37-1.42-3.56-2.13s-2.4-1.41-3.53-2.18l-3.4-2.27-6.82-4.55c-2.28-1.5-4.61-2.91-6.92-4.37s-4.59-2.93-7-4.29l-7.07-4.11c-2.33-1.4-4.74-2.67-7.15-3.95s-4.78-2.61-7.21-3.84c-4.9-2.37-9.74-4.87-14.76-7-4.94-2.29-10-4.16-15.09-6.17l-7.71-2.63-1.93-.66-2-.56-3.91-1.12a159.33,159.33,0,0,0-31.92-5.72,118.57,118.57,0,0,0-32.19,2,111,111,0,0,0-30.24,11,130.89,130.89,0,0,0-26.21,18.86,188.93,188.93,0,0,0-21.86,24c-13.27,17.18-24.24,36.09-34.1,55.51S1089,294.81,1080.69,315s-16.35,40.55-24.66,60.81-17,40.44-27.06,60c-1.25,2.44-2.59,4.85-3.88,7.28l-4,7.19c-1.43,2.36-2.82,4.74-4.28,7.07s-3,4.68-4.42,6.95l-2.15,3.42c-.72,1.13-1.33,2.34-2,3.5s-1.35,2.33-1.94,3.54l-1.79,3.62c-.62,1.19-1.14,2.43-1.66,3.67s-1.08,2.46-1.57,3.71c-.89,2.53-1.93,5-2.64,7.6A97,97,0,0,0,994.2,525a105.94,105.94,0,0,0,5.95,31.53,128.57,128.57,0,0,0,6.23,14.91,151.76,151.76,0,0,0,7.89,14.15,204.72,204.72,0,0,0,19.46,26c14.29,16.36,30.67,30.87,48,44.09q13,9.9,26.73,18.8c9.14,5.91,18.5,11.59,28.06,16.67l-.14-.07,34.32,14c5.69,2.4,11.35,4.88,17,7.31s11.37,4.85,17,7.39l16.85,7.72,8.42,3.87,8.32,4.08,8.33,4.08,4.16,2,2.08,1,2.05,1.08,16.4,8.65c21.67,11.89,42.86,24.87,62.15,40.41,4.89,3.8,9.57,7.84,14.29,11.83l14,12.17a333.93,333.93,0,0,0,29.06,22.78l-.08,0a487.68,487.68,0,0,0,61,26.38c2.59,1,5.24,1.79,7.88,2.62l7.92,2.5,2,.63,2,.54,4,1.08,8,2.15c2.7.64,5.41,1.19,8.11,1.79l4.06.88c1.35.3,2.7.6,4.07.8l8.19,1.37c1.37.22,2.73.47,4.1.67l4.12.47,8.25,1c2.76.23,5.52.36,8.28.54l4.14.26c1.38.12,2.77,0,4.15.09l8.29.06c2.77,0,5.53-.24,8.29-.35l4.14-.2c1.38-.07,2.75-.27,4.13-.4l8.24-.89,8.18-1.37a180.75,180.75,0,0,0,61.66-23.22,210,210,0,0,0,26.79-19.41A249.77,249.77,0,0,0,1694.07,814a295,295,0,0,0,20.16-26.27c6.22-9.14,11.86-18.65,17.2-28.33s10.06-19.68,14.59-29.77,8.53-20.41,12.33-30.79,7.25-20.91,10.38-31.52,6.09-21.28,8.68-32c5.28-21.49,9.48-43.25,12.89-65.13s5.91-43.9,7.49-66q1.18-16.56,1.6-33.16c.07-2.77.12-5.53.14-8.3s0-5.53,0-8.29-.08-5.53-.14-8.29-.21-5.47-.58-8.18a113.57,113.57,0,0,0-2.87-16.15l-1.07-4c-.34-1.33-.82-2.61-1.22-3.92-.79-2.63-1.81-5.18-2.75-7.75A166,166,0,0,0,1775.63,377a225.64,225.64,0,0,0-20.12-26.22,306.46,306.46,0,0,0-23.29-23.57,461,461,0,0,0-52.34-40.78c-18.36-12.4-37.37-23.86-56.87-34.41q-14.62-7.93-29.58-15.21C1583.48,232,1573.35,227.27,1563.22,223Z"/><path class="cls-3" d="M1919.92,521.5c-4.27,6.53-7.16,13.85-9.71,21.2s-4.57,14.92-6.55,22.47c-3.88,15.12-7.18,30.4-10.51,45.67-6.61,30.54-13.32,61.11-21.74,91.25s-18.31,59.91-30.82,88.65-27.76,56.37-46.57,81.52a308.74,308.74,0,0,1-30.87,35.54,286.68,286.68,0,0,1-36.21,30.12c-6.38,4.59-13.11,8.67-19.85,12.72l-10.33,5.68-1.3.71-1.32.64-2.66,1.28-5.3,2.57c-3.51,1.79-7.16,3.24-10.78,4.77l-5.44,2.29c-.9.4-1.82.74-2.74,1.07l-2.78,1c-3.7,1.31-7.37,2.73-11.1,4L1642.06,978c-.94.28-1.87.59-2.82.85l-2.86.71-5.71,1.44-5.72,1.43c-1.9.48-3.85.8-5.77,1.2L1607.63,986,1596,987.69c-1.94.28-3.88.61-5.83.83l-5.85.6c-3.91.38-7.81.82-11.72,1.15l-11.76.66-5.87.33-5.88.08c-31.39.62-62.75-2-93.7-6.84A778.78,778.78,0,0,1,1363.73,964c-7.57-2-15-4.41-22.51-6.68L1330,953.88l-11-4.11-22-8.22c-1.85-.65-3.63-1.47-5.44-2.21l-5.41-2.27-10.82-4.55L1264.51,928c-1.82-.73-3.57-1.59-5.35-2.41l-5.31-2.49-21.25-10c-7-3.53-13.9-7.2-20.85-10.79-3.45-1.82-7-3.56-10.38-5.46L1191.19,891,1181,885.22l-5.09-2.91c-1.7-1-3.33-2.06-5-3.09L1151,866.75c-12.94-8.79-26-17.47-38.33-27.07A653,653,0,0,1,1042.06,778a578.57,578.57,0,0,1-60.36-71.76,536,536,0,0,1-47.63-80.78A464.89,464.89,0,0,1,916,582.14c-2.58-7.4-5.07-14.83-7.21-22.37s-4.14-15.1-5.58-22.89a1,1,0,0,1,0-.29v0c2.55-20.72,6-41.26,9.85-61.74s8.27-40.84,13.18-61.09a1044.37,1044.37,0,0,1,36.47-119.57c14.67-39,32.16-77.12,54-112.79a425.37,425.37,0,0,1,36.39-51,303.51,303.51,0,0,1,44.82-43.9,247.17,247.17,0,0,1,26-17.79,217.08,217.08,0,0,1,28.21-14,201.16,201.16,0,0,1,61.18-14.33,233.64,233.64,0,0,1,62.68,4.21,314.15,314.15,0,0,1,59.93,18.64,299.77,299.77,0,0,1,28.33,13.44l13.8,7.28c2.28,1.25,4.65,2.32,7,3.44l7,3.36,7,3.35,3.51,1.68,1.76.84,1.79.77,14.29,6.13c2.39,1,4.75,2.08,7.16,3l7.27,2.77,7.26,2.77,3.64,1.38,1.81.69,1.84.62,14.75,4.93c2.44.87,4.94,1.56,7.43,2.28l7.46,2.15,3.73,1.07,1.87.54,1.89.46L1494,128c2.51.59,5,1.25,7.55,1.79l7.62,1.49,3.81.74c1.27.26,2.53.52,3.81.68l7.67,1.16,3.84.57,3.85.4c2.57.26,5.14.56,7.71.79l7.73.47c2.57.16,5.15.12,7.72.19,1.29.05,2.57,0,3.86,0l3.85-.11,3.82-.26c.64-.05,1.26-.14,1.9-.2s1.25-.14,1.83-.23l-.29.08a59.32,59.32,0,0,1,7.51-1.88c1.26-.24,2.51-.45,3.77-.62s2.51-.33,3.78-.46a112.91,112.91,0,0,1,15.16-.49,129.25,129.25,0,0,1,29.85,4.74,156.9,156.9,0,0,1,28.1,11,184.91,184.91,0,0,1,25.62,15.81c16.29,11.77,30.67,25.94,43.68,41.12,3.33,3.74,6.39,7.71,9.5,11.62l2.33,2.94c.77,1,1.49,2,2.23,3l4.43,6,2.22,3,2.11,3.1,4.2,6.21,8.36,12.38c22.17,33.06,48.13,63.42,75.11,92.7,13.51,14.65,27.35,29,40.87,43.64s26.76,29.66,37.84,46.29a.21.21,0,0,1-.06.28.2.2,0,0,1-.27-.05h0l-4.32-6.09-2.16-3-2.31-2.93L1903.2,418l-4.83-5.7c-6.43-7.6-13.2-14.91-20-22.2-13.64-14.52-27.61-28.74-41.25-43.28s-27-29.36-39.77-44.71c-3.15-3.87-6.38-7.68-9.47-11.6l-9.2-11.81c-3-4-5.93-8-8.9-12-1.45-2-3-4-4.38-6.07l-4.23-6.18-8.45-12.34-4.22-6.15-2.11-3.07-2.22-3-4.44-6c-.75-1-1.46-2-2.24-3l-2.33-2.9c-3.12-3.87-6.17-7.78-9.49-11.47-13-15-27.33-28.87-43.41-40.42A181.79,181.79,0,0,0,1657,150.65,153.17,153.17,0,0,0,1629.47,140a125.74,125.74,0,0,0-29.08-4.51,110.76,110.76,0,0,0-14.69.53c-1.21.14-2.43.26-3.64.46s-2.41.38-3.6.61a55.21,55.21,0,0,0-7,1.76l-.06,0-.23,0c-.71.12-1.38.2-2,.27s-1.33.17-2,.22l-4,.29-4,.13c-1.32,0-2.64.09-4,0-2.62-.06-5.26,0-7.88-.16l-7.86-.45c-2.61-.22-5.21-.51-7.82-.77l-3.91-.39-3.89-.56-7.77-1.14c-1.3-.17-2.58-.42-3.86-.67l-3.86-.74-7.71-1.48c-2.56-.53-5.09-1.19-7.64-1.77l-7.63-1.82-1.91-.45-1.88-.54-3.77-1.07-7.54-2.14c-2.52-.71-5-1.4-7.51-2.26L1448,118.54l-1.86-.62-1.83-.7-3.66-1.38-7.33-2.78-7.32-2.78c-2.43-1-4.81-2-7.22-3l-14.4-6.16-1.8-.76-1.77-.85-3.53-1.68-7.07-3.36-7.07-3.36c-2.35-1.13-4.74-2.2-7-3.45l-13.83-7.26a296.4,296.4,0,0,0-28.07-13.26,315.8,315.8,0,0,0-59.13-18.36,229.53,229.53,0,0,0-61.53-4.15,198.7,198.7,0,0,0-59.92,14,213.08,213.08,0,0,0-27.69,13.67,243.41,243.41,0,0,0-25.55,17.44,298.41,298.41,0,0,0-44.33,43.22,421.32,421.32,0,0,0-36.16,50.47c-21.73,35.36-39.16,73.24-54,112a1041.38,1041.38,0,0,0-36.8,119.05q-7.53,30.26-13.51,60.88c-4,20.4-7.52,40.92-10.18,61.5v-.31c1.35,7.59,3.28,15.19,5.4,22.67s4.53,14.91,7.06,22.28a460.59,460.59,0,0,0,17.77,43.26,519.64,519.64,0,0,0,47.18,80.72,577.27,577.27,0,0,0,60.1,71.7,628.56,628.56,0,0,0,70.57,61.45c12.36,9.54,25.39,18.17,38.32,26.91l19.87,12.4c1.66,1,3.29,2.1,5,3.07l5.09,2.89,10.19,5.78,10.19,5.76c3.42,1.87,6.93,3.58,10.39,5.38,7,3.54,13.88,7.15,20.87,10.63l21.26,9.8,5.32,2.45c1.77.82,3.53,1.66,5.35,2.38l10.82,4.46L1287,935l5.41,2.23c1.81.73,3.59,1.53,5.43,2.17l22,8.06,11,4,11.2,3.37c7.48,2.21,14.91,4.57,22.47,6.51a781.2,781.2,0,0,0,91.39,19.88,546.12,546.12,0,0,0,93.12,6.55l5.84-.08,5.82-.33,11.65-.66c3.88-.34,7.74-.78,11.61-1.16l5.81-.59c1.93-.22,3.84-.55,5.77-.82l11.53-1.72,11.44-2.25c1.9-.4,3.83-.7,5.71-1.17l5.66-1.41,5.65-1.4,2.83-.7c.94-.26,1.86-.56,2.8-.83l11.15-3.38c3.69-1.2,7.32-2.59,11-3.88l2.74-1c.92-.32,1.83-.66,2.72-1l5.37-2.25c3.58-1.51,7.2-2.93,10.66-4.69l5.25-2.52,2.62-1.26,1.32-.63,1.27-.7,10.23-5.58c6.66-4,13.32-8,19.64-12.52a283.65,283.65,0,0,0,35.85-29.69,306.35,306.35,0,0,0,30.65-35.11,379.15,379.15,0,0,0,25.58-39,442.23,442.23,0,0,0,21-41.71c12.61-28.52,22.68-58.14,31.21-88.16s15.54-60.5,22.44-91c3.47-15.24,6.91-30.49,10.93-45.61,2-7.55,4.17-15.08,6.82-22.46s5.64-14.66,10-21.19a.21.21,0,0,1,.28-.06.2.2,0,0,1,.05.28Z"/><path class="cls-3" d="M1296.65,1080.19c-16.24-6.45-32.19-13.61-47.9-21.29-3.9-2-7.86-3.82-11.73-5.86l-11.61-6.08-11.49-6.34c-3.84-2.08-7.58-4.34-11.38-6.51-15.1-8.82-30-18-44.51-27.76s-28.74-20-42.7-30.5a987.32,987.32,0,0,1-80.19-67.64q-19.11-18-37.32-36.87t-35.44-38.66q-17.26-19.73-33.6-40.24T897,750.74c-10.21-14.18-20.18-28.54-29.71-43.19s-18.58-29.6-27.23-44.8S823.36,632,816,616.16a446.26,446.26,0,0,1-19.56-48.73c-5.5-16.63-9.81-33.75-11.77-51.28a132.43,132.43,0,0,1-.51-26.49,80.25,80.25,0,0,1,6.39-25.91l0,.12c15-40.66,28.79-81.85,43.65-122.66S864.57,259.82,882,220c8.72-19.91,17.86-39.63,27.57-59.08s20-38.63,31.09-57.31a636.63,636.63,0,0,1,36-54.39,427,427,0,0,1,42.5-49.35.19.19,0,0,1,.28,0,.19.19,0,0,1,0,.28A441.57,441.57,0,0,0,978,50.22a644.36,644.36,0,0,0-35.05,54.72c-21.56,37.59-40.32,76.74-57.37,116.6S853,301.91,838.14,342.67q-11.1,30.58-22,61.26c-7.28,20.45-14.55,40.91-22.2,61.25a.61.61,0,0,0-.05.12A77.17,77.17,0,0,0,787.7,490,128.75,128.75,0,0,0,788,515.8a218.7,218.7,0,0,0,4.27,25.62c2,8.45,4.22,16.85,6.9,25.13A445,445,0,0,0,818,615.24c7.17,15.88,15.07,31.45,23.5,46.72s17.5,30.19,26.93,44.87,19.31,29.08,29.65,43.14,21,27.9,31.95,41.47,22.42,26.75,34.08,39.71,23.63,25.67,35.87,38.1,24.8,24.53,37.57,36.4c3.22,2.94,6.38,5.94,9.62,8.86l9.71,8.74c6.56,5.75,13.1,11.51,19.76,17.13,13.3,11.28,26.81,22.3,40.68,32.86a940.5,940.5,0,0,0,86.43,58.84,775.22,775.22,0,0,0,93.07,47.74.2.2,0,0,1,.1.26A.2.2,0,0,1,1296.65,1080.19Z"/><path class="cls-3" d="M1916.94,913.64q-2.57,3.78-5.21,7.51c-1.78,2.47-3.48,5-5.41,7.38s-3.76,4.81-5.67,7.19c-1,1.18-1.87,2.41-2.88,3.56l-3,3.46-6,6.89c-2,2.27-4.2,4.42-6.3,6.64s-4.23,4.41-6.41,6.55-4.48,4.16-6.72,6.23c-4.47,4.16-9.23,8-13.93,11.89l-3.52,2.91c-1.17,1-2.41,1.87-3.61,2.81l-7.18,5.65c-9.59,7.52-19.24,15-29.08,22.16-1.23.9-2.43,1.85-3.68,2.72l-3.76,2.6L1797,1025c-1.27.86-2.52,1.73-3.8,2.56l-3.88,2.42-7.79,4.81-3.9,2.4c-1.31.79-2.65,1.52-4,2.28l-8,4.53c-5.27,3.1-10.75,5.78-16.19,8.57a485.75,485.75,0,0,1-67.68,27.64.19.19,0,0,1-.25-.12.2.2,0,0,1,.11-.25c22.29-9.83,44.34-20,65.89-31.08l8.1-4.13c1.36-.68,2.7-1.37,4-2.12l4-2.17,8-4.32c1.33-.73,2.68-1.42,4-2.17l3.92-2.3q15.75-9.1,31.13-18.86l7.59-5,3.79-2.52c1.25-.86,2.46-1.79,3.69-2.68,2.45-1.79,4.87-3.63,7.3-5.45l3.62-2.76,3.51-2.91c4.63-3.93,9.33-7.79,13.67-12l6.64-6.23c2.25-2,4.29-4.29,6.46-6.4s4.31-4.27,6.51-6.35l6.37-6.48c2.11-2.17,4.3-4.27,6.36-6.49l6.21-6.64c4.23-4.35,8.11-9,12.21-13.49,2.07-2.23,4-4.59,6-6.89s4-4.61,6-6.89h0a.2.2,0,0,1,.28,0A.2.2,0,0,1,1916.94,913.64Z"/><path class="cls-3" d="M1489.67-.2q31.66,6.44,62.82,15.13c5.17,1.49,10.37,2.93,15.53,4.47s10.31,3.11,15.45,4.74,10.27,3.26,15.37,5,10.2,3.49,15.26,5.35c20.24,7.41,40.15,15.71,59.79,24.56s39.08,18.1,58.18,28.09c2.41,1.21,4.76,2.52,7.12,3.82l7.1,3.88c1.18.65,2.37,1.28,3.54,2l3.5,2,7,4.06q13.92,8.27,27.3,17.4a443.67,443.67,0,0,1,50.71,40.3l3,2.74,2.88,2.86,5.76,5.71,2.85,2.89,2.75,3,5.48,6c.9,1,1.85,2,2.71,3l2.61,3.11,5.19,6.24c1.76,2.05,3.34,4.25,5,6.41l4.87,6.5c1.68,2.12,3.1,4.43,4.64,6.65l4.54,6.72c.78,1.11,1.48,2.27,2.17,3.43l2.1,3.47,4.16,7c2.61,4.73,5,9.56,7.58,14.33q3.42,7.33,6.72,14.73v0a.65.65,0,0,1,0,.13,91.24,91.24,0,0,0,7.46,21.88.2.2,0,0,1-.09.27.21.21,0,0,1-.27-.09,87.33,87.33,0,0,1-8.66-21.71l0,.15-7.24-14.37c-2.68-4.64-5.26-9.34-8-13.93l-4.33-6.76-2.15-3.39c-.71-1.14-1.42-2.27-2.22-3.35l-4.64-6.55c-1.57-2.16-3-4.41-4.72-6.48l-5-6.32c-1.65-2.1-3.26-4.23-5-6.22l-5.23-6.09-2.6-3.05c-.87-1-1.81-2-2.71-3q-10.85-11.82-22.57-22.81a464.05,464.05,0,0,0-49.85-40.49c-8.72-6.23-17.68-12.15-26.74-17.9l-6.83-4.26-3.41-2.14c-1.15-.7-2.31-1.36-3.47-2l-6.95-4.07c-2.32-1.36-4.63-2.73-7-4A575.18,575.18,0,0,0,1673.3,60.4c-19.81-8.37-40-15.69-60.35-22.66l-15.25-5.19-15.3-5.07c-10.23-3.29-20.47-6.52-30.76-9.62-20.58-6.21-41.28-12-62.06-17.67a.21.21,0,0,1-.14-.25A.2.2,0,0,1,1489.67-.2Z"/></g><g class="cls-2"><path class="cls-3" d="M339.94,1079.93c.66-2.31,1.35-4.63,2.14-6.91s1.66-4.55,2.63-6.78a51.37,51.37,0,0,1,3.42-6.52,22,22,0,0,1,2.31-3,9.88,9.88,0,0,1,3.31-2.49l-.49.32a285.9,285.9,0,0,1,22.15-21.6c3.9-3.37,7.94-6.62,12.11-9.66s8.5-5.9,12.91-8.59,8.93-5.19,13.51-7.56,9.26-4.54,14.05-6.46a105.21,105.21,0,0,1,30-7.6,71.13,71.13,0,0,1,31,4.1,86.94,86.94,0,0,1,26.9,16.08,130.58,130.58,0,0,1,20.66,23.36c1.46,2.15,3,4.27,4.3,6.48l2.06,3.29,2,3.35c1.32,2.22,2.49,4.53,3.73,6.79s2.33,4.6,3.5,6.9l0,0a.36.36,0,0,1,0,.09,51.08,51.08,0,0,1,1.85,8.15,57.24,57.24,0,0,1,.65,8.26.19.19,0,0,1-.19.2.19.19,0,0,1-.2-.17,77.21,77.21,0,0,0-1.45-8.06,55.18,55.18,0,0,0-2.46-7.73l.06.12c-1.31-2.2-2.57-4.42-3.92-6.6s-2.67-4.35-4.11-6.46c-2.74-4.3-5.73-8.43-8.76-12.51s-6.3-8-9.71-11.69a140.12,140.12,0,0,0-10.82-10.57c-7.63-6.52-16.08-12.16-25.43-15.77a76.42,76.42,0,0,0-29.49-5.09,88.93,88.93,0,0,0-29.72,6.2,123.94,123.94,0,0,0-26.78,14.76c-8.36,5.87-16.16,12.46-23.91,19.08q-5.81,5-11.41,10.22c-3.77,3.45-7.42,7-11.11,10.59l-.07.06a1.06,1.06,0,0,1-.41.26,7.34,7.34,0,0,0-2.47,1.72,24.32,24.32,0,0,0-2.21,2.58,51.73,51.73,0,0,0-3.7,6c-1.14,2.09-2.16,4.25-3.17,6.42s-1.94,4.38-2.89,6.6a.19.19,0,0,1-.26.1A.22.22,0,0,1,339.94,1079.93Z"/><path class="cls-3" d="M261.78,1083.72a172.28,172.28,0,0,1-4.77-30.5,182.61,182.61,0,0,1,17.77-90.41,173.93,173.93,0,0,1,15.88-26.69,172.12,172.12,0,0,1,20.48-23.32A162.87,162.87,0,0,1,363,879.53l1.79-.72,1.82-.65,3.63-1.32c2.44-.85,4.92-1.56,7.37-2.35s5-1.34,7.49-1.93l3.79-.8c1.26-.26,2.52-.55,3.8-.74a160.72,160.72,0,0,1,30.83-2.41,168.86,168.86,0,0,1,30.79,3.48A194.22,194.22,0,0,1,484,880.91a218.21,218.21,0,0,1,28.07,13.2c2.27,1.24,4.54,2.48,6.74,3.84s4.45,2.64,6.63,4l6.5,4.23c2.18,1.4,4.25,2.95,6.38,4.41l3.17,2.23c1,.75,2.07,1.55,3.11,2.32l6.16,4.7c4,3.29,8.07,6.46,11.92,9.9,1.94,1.7,3.93,3.36,5.83,5.1l5.67,5.28c1.91,1.74,3.74,3.55,5.57,5.37l5.51,5.44-.19-.16.48.41.42.39.81.78,1.51,1.6c1,1.08,1.85,2.23,2.79,3.34l2.5,3.53c.8,1.19,1.51,2.43,2.27,3.65.36.62.77,1.21,1.1,1.84l1,1.9,2,3.81,1.7,3.91.85,2,.42,1,.36,1,1.42,4,.71,2a18.2,18.2,0,0,1,.64,2l2.28,8.19a169.27,169.27,0,0,1,3,16.67c.89,5.58,1.1,11.22,1.5,16.84l.14,2.1,0,2.11,0,4.22,0,8.43c-.34,5.61-.62,11.22-1,16.81l-2,16.7a.21.21,0,0,1-.22.18.2.2,0,0,1-.18-.21h0l1.18-16.74c.2-5.58.22-11.17.35-16.75l-.29-8.36-.15-4.17-.08-2.09-.2-2.08c-.56-5.54-.94-11.1-2-16.56l-.67-4.11c-.11-.68-.19-1.37-.34-2l-.45-2-1.84-8.11L602.81,989a16.76,16.76,0,0,0-.67-2l-.72-1.94L600,981.21l-.37-1-.43-.94-.85-1.88-1.72-3.75-2-3.62-1-1.81c-.33-.6-.72-1.16-1.08-1.74-.75-1.14-1.45-2.32-2.23-3.44l-2.41-3.28c-.88-1-1.71-2.1-2.62-3.08l-1.38-1.45c-.46-.41-1-.94-1.38-1.26l-.16-.14,0,0c-7.3-7.15-14.7-14.21-22.47-20.82-3.81-3.41-7.84-6.54-11.77-9.79l-6.08-4.65c-1-.78-2-1.57-3-2.33l-3.1-2.23c-2.09-1.46-4.12-3-6.25-4.41l-6.36-4.24c-2.14-1.39-4.33-2.69-6.5-4s-4.37-2.61-6.59-3.86a228.92,228.92,0,0,0-27.48-13.33,197.43,197.43,0,0,0-29.09-9.23,164.63,164.63,0,0,0-30.24-4.25,143,143,0,0,0-60,10,145.26,145.26,0,0,0-27,14.39,157,157,0,0,0-23.47,19.57A185.68,185.68,0,0,0,278,964.37a191.49,191.49,0,0,0-17.57,58.23,190.69,190.69,0,0,0,1.74,61,.21.21,0,0,1-.4.09Z"/><path class="cls-3" d="M194.08,1079.94l-1.17-16.21-1.12-16.21v0h0c.17-9.34.78-18.64,1.63-27.93s1.92-18.55,3.25-27.78a429.59,429.59,0,0,1,11.4-54.8q3.75-13.51,8.66-26.68A229.55,229.55,0,0,1,228,884.55a171.15,171.15,0,0,1,14.79-24A124.74,124.74,0,0,1,262,839.88a100.13,100.13,0,0,1,11.37-8.4c1.95-1.33,4.05-2.41,6.09-3.6,1-.55,2.11-1,3.16-1.58l1.59-.79c.53-.25,1.08-.46,1.62-.7l3.25-1.38c1.1-.41,2.22-.79,3.33-1.19,2.2-.85,4.5-1.38,6.75-2.06A92.27,92.27,0,0,1,313,817.75c1.17-.1,2.33-.25,3.51-.32l3.51-.13,1.76-.06c.59,0,1.17,0,1.76,0l3.51.06,7,.18c2.32,0,4.63,0,6.95-.06,9.28-.23,18.54-1.07,27.76-2.17,18.44-2.3,36.73-5.74,55-9.3s36.46-7.43,54.79-10.78c9.17-1.66,18.36-3.22,27.59-4.55s18.52-2.38,27.84-3.11c18.61-1.45,37.5-1.55,56.1,1.6a126,126,0,0,1,27.23,7.67,94.33,94.33,0,0,1,24.41,14.56,92.62,92.62,0,0,1,18.66,21.47,117.2,117.2,0,0,1,12.06,25.67A180.76,180.76,0,0,1,678.88,886l1,7c.3,2.33.47,4.67.7,7l.33,3.5c.11,1.17.14,2.34.21,3.51l.38,7a402.15,402.15,0,0,1-2.35,56l-.75,7c-.29,2.31-.63,4.61-.94,6.92l-1,6.92c-.31,2.32-.51,4.58-.75,6.87a172,172,0,0,0,.14,27.7,258.9,258.9,0,0,0,3.86,27.53c1.8,9.11,4,18.14,6.5,27.1a.2.2,0,0,1-.14.25.2.2,0,0,1-.24-.13c-5.63-17.74-10-36-12-54.57a174.06,174.06,0,0,1-.7-28.06c.18-2.34.35-4.72.62-7l.8-6.93c.26-2.3.56-4.61.79-6.92l.65-6.93a397.39,397.39,0,0,0,1.64-55.5l-.45-6.92c-.09-1.15-.14-2.3-.25-3.45l-.37-3.44c-.26-2.29-.46-4.59-.76-6.88l-1-6.84a177.19,177.19,0,0,0-6.48-26.76,118.92,118.92,0,0,0-11.66-24.72A89.2,89.2,0,0,0,639,814.61a90.37,90.37,0,0,0-23.25-14.08,122.63,122.63,0,0,0-26.33-7.61c-18.12-3.21-36.74-3.22-55.2-2s-36.9,3.81-55.24,6.78-36.62,6.51-54.93,9.84-36.63,6.74-55.13,9c-9.25,1.16-18.54,2-27.87,2.34-2.33.07-4.66.1-7,.14l-7-.1h-3.46c-.58,0-1.15,0-1.73,0l-1.73.1-3.45.2c-1.15.08-2.29.25-3.44.37a91.4,91.4,0,0,0-13.53,2.65c-2.19.71-4.42,1.28-6.55,2.15-1.07.41-2.15.8-3.22,1.23L286.75,827c-.52.24-1.05.45-1.57.71l-1.52.79c-1,.54-2.05,1-3.05,1.6-2,1.2-4,2.29-5.86,3.62a98.24,98.24,0,0,0-10.89,8.39,127.73,127.73,0,0,0-18.32,20.53,181.25,181.25,0,0,0-14.33,23.59,290.63,290.63,0,0,0-20,51.67,477.74,477.74,0,0,0-11.93,54.3,530,530,0,0,0-6.06,55.35v-.07l.64,16.25.59,16.24a.2.2,0,0,1-.19.21A.21.21,0,0,1,194.08,1079.94Z"/><path class="cls-3" d="M73.11,1079.89,75.33,1069c.75-3.62,1.43-7.27,2.29-10.87l2.53-10.82,1.26-5.42c.44-1.8.93-3.58,1.39-5.38,1.88-7.17,3.66-14.37,5.81-21.46l3.13-10.68,3.37-10.6A671.15,671.15,0,0,1,127.72,911q9.54-20.12,20.4-39.58c1.84-3.23,3.64-6.48,5.51-9.68l5.69-9.58,5.9-9.44,6.09-9.34c8.19-12.38,17-24.39,26.25-36q7-8.7,14.4-17c5-5.54,10-11,15.51-16.1h0a1.1,1.1,0,0,1,.28-.2c16.28-8.05,32.85-15.35,49.56-22.35s33.57-13.62,50.61-19.78q12.76-4.63,25.65-8.93t25.85-8.35q26-8,52.42-14.29c17.63-4.22,35.42-7.74,53.36-10.45a463.39,463.39,0,0,1,54.18-5.11,335.13,335.13,0,0,1,54.46,2.49,230.39,230.39,0,0,1,52.95,13.34,172.6,172.6,0,0,1,47.33,27.44,164.13,164.13,0,0,1,35.71,41.48,207.6,207.6,0,0,1,21.69,50.2,267.59,267.59,0,0,1,6.31,26.6c1.63,9,2.86,18,3.79,27s1.44,18.13,1.76,27.21.38,18.24-.2,27.25c-.78,18.07-1.09,36.13-.72,54.2s1.43,36.11,3.4,54.07q1.41,13.49,3.65,26.86c1.49,8.92,3.22,17.8,5.33,26.59a.21.21,0,0,1-.15.24.19.19,0,0,1-.24-.14c-2.34-8.75-4.31-17.6-6-26.5s-3.1-17.86-4.23-26.85c-2.35-18-3.64-36.09-4.3-54.2s-.63-36.28,0-54.37c.49-9.07.31-18-.05-27s-1-18-2-27a304.6,304.6,0,0,0-10.33-52.86,207.74,207.74,0,0,0-21.39-49.13,162.13,162.13,0,0,0-34.73-40.49,168.89,168.89,0,0,0-46.08-27,226.93,226.93,0,0,0-52-13.39,334.35,334.35,0,0,0-53.88-3c-36.06.82-72,6.17-107.23,14.12-17.64,4-35.11,8.7-52.42,13.9q-13,3.93-25.86,8.22c-8.57,2.89-17.09,5.93-25.57,9.06-16.95,6.3-33.79,12.94-50.36,20.18s-33,14.8-49.06,23l.28-.19c-5.24,5.06-10.23,10.55-15.07,16.11s-9.52,11.27-14,17.1c-9.13,11.59-17.7,23.63-25.86,35.93a653.93,653.93,0,0,0-43.66,77c-1.61,3.33-3.13,6.69-4.7,10l-2.33,5-2.22,5.07c-1.47,3.39-3,6.76-4.41,10.17l-4.23,10.24c-1.45,3.4-2.76,6.86-4.1,10.3s-2.7,6.88-4,10.35L100.89,984,99,989.23l-1.76,5.26L93.75,1005l-3.27,10.59c-1,3.55-2.24,7-3.2,10.62l-3,10.68c-.49,1.78-1,3.55-1.5,5.34l-1.38,5.37-2.76,10.75c-1.76,7.19-3.39,14.41-5.1,21.61h0a.2.2,0,1,1-.39-.09Z"/><path class="cls-3" d="M-.2,1027.08Q16.56,969.71,38.61,914c7.35-18.53,15.08-36.92,23.33-55.08s17-36.11,26.23-53.79c18.48-35.35,38.88-69.83,63-101.75,6-8,12.32-15.75,19-23.25a283.46,283.46,0,0,1,20.95-21.51,165.34,165.34,0,0,1,23.81-18.39,94.33,94.33,0,0,1,13.44-6.94,59.39,59.39,0,0,1,14.63-4.06h-.09c14.8-3.19,29.55-6.61,44.29-10.11l44.19-10.6c29.5-6.94,59-13.84,88.73-19.83q11.15-2.25,22.31-4.35c3.72-.73,7.45-1.4,11.18-2.08s7.46-1.35,11.19-2q22.41-3.87,45-6.83T555,568.82c15.13-1.11,30.32-1.72,45.51-1.64A438.64,438.64,0,0,1,646,569.63,303.81,303.81,0,0,1,691,577.81a213.33,213.33,0,0,1,42.85,16.09,163.55,163.55,0,0,1,37.54,26.34c.7.65,1.42,1.29,2.11,2l2,2.09,4,4.17c.69.68,1.28,1.44,1.9,2.18l1.84,2.21c1.21,1.49,2.47,2.94,3.65,4.46l3.36,4.68c1.11,1.57,2.3,3.09,3.26,4.75l3,4.91L798,654.1l1.35,2.55a178.24,178.24,0,0,1,16.33,42.85,245.3,245.3,0,0,1,6.45,45.31,384.6,384.6,0,0,1-.75,45.68l-.11-.83c8.1,23.55,15.18,47.33,21.79,71.28s12.69,48,18,72.27l2,9.08,1.9,9.12c1.24,6.08,2.56,12.14,3.74,18.23,2.28,12.21,4.73,24.37,6.69,36.63,4.25,24.45,7.5,49.07,10.38,73.71a.21.21,0,0,1-.18.22.21.21,0,0,1-.22-.18c-3.45-24.56-7-49.1-11.72-73.44-2.14-12.21-4.72-24.34-7.15-36.49-1.26-6.06-2.65-12.1-4-18.16l-2-9.07-2.15-9c-1.46-6-2.82-12.07-4.35-18.07l-4.54-18-4.77-18c-1.57-6-3.31-11.93-5-17.9C833,838,825.69,814.3,817.48,791a2.07,2.07,0,0,1-.12-.81v0a386.53,386.53,0,0,0,.57-45.15,246,246,0,0,0-6.47-44.51,173.51,173.51,0,0,0-15.91-41.83l-1.31-2.48-1.46-2.39-2.94-4.76c-.93-1.63-2.09-3.09-3.16-4.62l-3.25-4.56c-1.13-1.48-2.35-2.9-3.53-4.35l-1.77-2.16c-.6-.72-1.17-1.46-1.83-2.12l-3.84-4.07-1.92-2c-.67-.65-1.37-1.27-2-1.91A159.68,159.68,0,0,0,732,597.39a210.49,210.49,0,0,0-42-16,311,311,0,0,0-44.36-8.31,436.67,436.67,0,0,0-45.17-2.78,706.23,706.23,0,0,0-90.49,5.3q-22.53,2.7-45,6.38-5.61.88-11.2,1.86c-3.73.65-7.46,1.28-11.18,2-7.45,1.35-14.89,2.79-22.31,4.25-29.71,5.9-59.26,12.58-88.69,19.77l-44.14,10.82c-14.71,3.63-29.41,7.27-44.2,10.64l-.06,0h0c-9.67,1.45-18.73,5.78-27,11A162.47,162.47,0,0,0,193,660.71a279.46,279.46,0,0,0-20.47,21.53q-9.69,11.28-18.62,23.21C142,721.37,131,737.9,120.61,754.85s-20.22,34.24-29.51,51.82-18,35.45-26.41,53.51S48.36,896.47,40.83,914.9Q18.26,970.18.18,1027.2a.2.2,0,0,1-.25.13A.21.21,0,0,1-.2,1027.08Z"/></g><g class="cls-2"><path class="cls-3" d="M1919.82,153.51c-2.65-5-5.18-10.14-7.65-15.24-.6-1.28-1.28-2.53-2-3.78l-2-3.77-4-7.47c-2.77-4.94-5.56-9.86-8.52-14.67s-6-9.54-9.16-14.22c-6.31-9.33-13.21-18.39-21.62-26a86.78,86.78,0,0,0-13.58-10.09A82.32,82.32,0,0,0,1836,51.21a94.71,94.71,0,0,0-16.33-3.92A150.86,150.86,0,0,0,1803,45.71c-11.25-.52-22.68.09-34.24-1.5a71.08,71.08,0,0,1-8.59-1.75c-1.42-.36-2.82-.84-4.22-1.3s-2.76-1-4.1-1.69a45.69,45.69,0,0,1-7.67-4.42c-1.23-.81-2.33-1.79-3.49-2.7s-2.21-1.94-3.2-3a64.61,64.61,0,0,1-10.22-14,82.27,82.27,0,0,1-3.77-7.73c-.55-1.33-1.12-2.63-1.63-4l-1.46-4a.2.2,0,0,1,.12-.26.2.2,0,0,1,.24.1h0l1.89,3.81c.64,1.27,1.33,2.51,2,3.76,1.36,2.48,2.83,4.89,4.34,7.26a66,66,0,0,0,10.68,12.8c1,1,2.1,1.79,3.14,2.68s2.19,1.65,3.37,2.36a41.29,41.29,0,0,0,7.23,3.82,51.36,51.36,0,0,0,7.78,2.57,65.5,65.5,0,0,0,8.14,1.49c5.5.76,11.12,1,16.78,1.21s11.37.38,17.09.76a127,127,0,0,1,17.12,2.18,89.38,89.38,0,0,1,16.53,5,106.91,106.91,0,0,1,29,18.24c1.1.92,2.15,1.89,3.22,2.84s2.1,1.94,3.13,2.93c2.11,1.94,4.08,4,6.06,6.09a169.71,169.71,0,0,1,11.06,13.17c1.66,2.33,3.4,4.62,4.92,7,.78,1.2,1.59,2.39,2.35,3.6l2.22,3.68c1.49,2.44,2.83,5,4.26,7.45s2.66,5.06,4,7.6c2.53,5.13,5,10.29,7.13,15.57s4.16,10.63,6.09,16a.19.19,0,0,1-.12.25.2.2,0,0,1-.25-.09Z"/></g></g></svg>